<?xml version="1.0" standalone="no"?>
<!DOCTYPE svg PUBLIC "-//W3C//DTD SVG 20010904//EN"
 "http://www.w3.org/TR/2001/REC-SVG-20010904/DTD/svg10.dtd">
<svg version="1.0" xmlns="http://www.w3.org/2000/svg"
 width="625.000000pt" height="625.000000pt" viewBox="0 0 625.000000 625.000000"
 preserveAspectRatio="xMidYMid meet">

<g transform="translate(0.000000,625.000000) scale(0.100000,-0.100000)"
fill="#000000" stroke="none">
<path d="M2088 3458 l-3 -223 -25 4 c-14 2 -79 4 -145 5 -119 1 -121 1 -184
-34 -38 -20 -82 -55 -109 -87 -50 -57 -72 -67 -72 -30 0 42 -56 106 -116 134
-100 46 -193 32 -295 -43 l-50 -36 -43 40 c-50 46 -102 66 -171 65 -51 0 -145
-34 -166 -59 -18 -22 -39 -17 -39 11 l0 25 -105 0 -105 0 0 -320 0 -320 103 0
104 0 6 206 c8 221 14 250 62 272 35 16 60 15 95 -3 58 -30 60 -40 60 -267 l0
-208 109 0 108 0 6 198 c3 116 10 211 17 230 20 53 81 75 147 52 51 -18 57
-44 61 -272 l4 -208 109 0 109 0 0 85 c0 47 2 85 5 85 3 0 33 -28 68 -63 39
-40 84 -74 122 -92 68 -32 74 -32 373 -20 179 7 182 8 182 30 0 34 9 36 49 11
140 -88 326 -58 422 70 23 29 46 51 51 48 5 -3 27 -25 49 -49 82 -89 227 -137
345 -116 64 12 144 40 144 50 0 15 -72 141 -81 141 -5 0 -28 -5 -51 -11 -62
-16 -117 1 -162 51 -32 36 -36 46 -36 96 0 64 16 101 62 139 30 26 37 27 117
24 l86 -4 34 64 c33 62 33 65 15 78 -66 48 -255 57 -347 15 -26 -12 -76 -48
-111 -82 -58 -56 -86 -72 -86 -51 0 20 -93 111 -133 130 -96 46 -206 45 -301
-4 -27 -14 -51 -23 -55 -20 -3 4 -7 114 -9 246 l-4 239 -109 0 -109 0 -2 -222z
m2 -538 c0 -199 -6 -232 -32 -175 -10 23 -15 24 -52 17 -106 -19 -156 -2 -203
68 -45 66 -22 170 48 219 31 21 41 23 116 18 l83 -6 15 29 c9 17 18 30 20 30
3 0 5 -90 5 -200z m477 108 c33 -31 57 -100 49 -142 -13 -67 -85 -126 -153
-126 -41 0 -112 39 -128 71 -24 46 -29 111 -12 145 22 42 61 75 99 83 46 10
118 -5 145 -31z"/>
<path d="M4560 3435 c0 -135 -2 -245 -4 -245 -2 0 -34 14 -71 32 -57 26 -80
31 -142 31 -64 0 -82 -4 -141 -34 -53 -27 -77 -47 -114 -97 l-47 -62 -15 29
c-21 39 -83 91 -153 127 -55 27 -65 29 -183 29 -118 0 -128 -2 -183 -29 -76
-39 -131 -87 -165 -144 -25 -44 -27 -55 -27 -157 0 -103 2 -113 29 -163 36
-65 82 -107 156 -141 51 -24 65 -26 190 -26 129 0 137 1 192 29 51 26 158 119
158 137 0 4 35 -28 78 -71 91 -91 122 -104 247 -98 68 2 88 8 130 33 61 36 67
37 75 5 6 -24 9 -25 103 -28 l97 -3 0 106 c0 58 3 105 8 105 4 0 25 -28 47
-61 74 -111 165 -158 306 -159 131 0 223 34 293 109 35 37 46 39 46 9 0 -34
35 -85 69 -103 115 -59 239 43 202 166 -13 44 -63 84 -118 95 -43 8 -112 -32
-138 -80 -11 -20 -23 -36 -28 -36 -4 0 -39 16 -77 35 l-70 35 -53 -30 c-43
-24 -66 -30 -112 -30 -56 0 -60 2 -102 45 -45 47 -54 78 -27 89 9 3 116 6 240
6 l224 0 -6 48 c-20 162 -93 261 -223 299 -76 22 -221 14 -276 -14 -59 -31
-120 -87 -156 -143 -18 -28 -36 -50 -41 -50 -4 0 -8 146 -8 325 l0 325 -105 0
-105 0 0 -245z m640 -340 c33 -17 54 -50 46 -71 -8 -20 -194 -20 -221 0 -18
13 -18 15 17 50 31 31 42 36 82 36 26 0 60 -7 76 -15z m-1417 -58 c49 -32 71
-120 46 -184 -36 -96 -166 -123 -245 -50 -30 27 -36 41 -41 87 -9 93 29 153
110 169 40 9 99 -1 130 -22z m714 5 c36 -20 67 -80 67 -133 0 -152 -223 -202
-288 -64 -66 139 83 271 221 197z"/>
</g>
</svg>
